<?xml version="1.0" encoding="utf-8"?>
<!-- Generator: Adobe Illustrator 18.1.1, SVG Export Plug-In . SVG Version: 6.00 Build 0)  -->
<svg version="1.1" id="Layer_1" xmlns="http://www.w3.org/2000/svg" xmlns:xlink="http://www.w3.org/1999/xlink" x="0px" y="0px"
	 viewBox="0 0 500 61" enable-background="new 0 0 500 61" xml:space="preserve">
<g>
	<path d="M0,1.6h19.8v1.1h-6.8l13.5,47.4h0.1l8.7-30.1l-5-17.2h-5.5V1.6h19.7v1.1h-7.2l13.5,47.4H51L64.8,2.7h-7V1.6h14.1v1.1h-5.9
		l-17,58.2h-1.6L36,21.7h-0.1L24.4,60.9h-1.8L5.9,2.7H0V1.6z"/>
	<path d="M77.6,58.5h7.3V2.7h-7.3V1.6h21.1v1.1h-7.3v55.8h7.3v1.1H77.6V58.5z"/>
	<path d="M107.2,58.5h7.3V2.7h-7.3V1.6h21.1v1.1H121v55.8h11.7c3.9,0,6.9-1.5,9.1-4.5c2.2-3,3.8-7.1,4.8-12.2h0.7v17.9h-40.1V58.5z"
		/>
	<path d="M156.4,58.5h7.3V2.7h-7.3V1.6h21.1v1.1h-7.3v26.7h21.9V2.7h-7.3V1.6H206v1.1h-7.3v55.8h7.3v1.1h-21.1v-1.1h7.3v-28h-21.9
		v28h7.3v1.1h-21.1V58.5z"/>
	<path d="M214.2,58.5h7.3V2.7h-7.3V1.6h37.6v14.1h-0.7c-0.6-2.1-1.2-4-1.8-5.6s-1.4-3-2.4-4.1c-0.9-1.1-2-1.9-3.3-2.5
		c-1.3-0.5-2.8-0.8-4.6-0.8h-10.9v25.2h4.3c1.4,0,2.7-0.2,3.7-0.5c1-0.3,1.9-0.9,2.6-1.8c0.7-0.9,1.3-2.1,1.8-3.7
		c0.5-1.6,1-3.6,1.5-6h0.7v25.4H242c-0.3-1.6-0.6-3.1-1-4.6c-0.3-1.5-0.8-2.8-1.4-3.9c-0.6-1.1-1.4-2.1-2.4-2.7c-1-0.7-2.3-1-3.8-1
		h-5.3v29.5h12.4c2.4,0,4.4-0.6,6-1.9c1.6-1.3,2.9-2.8,3.9-4.6c1-1.8,1.8-3.6,2.2-5.5c0.5-1.9,0.8-3.5,0.9-4.7h0.7v17.9h-40.1V58.5z
		"/>
	<path d="M264.7,58.5h7.3V2.7h-7.3V1.6h21.1v1.1h-7.3v55.8h11.7c3.9,0,6.9-1.5,9.1-4.5c2.2-3,3.8-7.1,4.8-12.2h0.7v17.9h-40.1V58.5z
		"/>
	<path d="M313.7,58.5h7.3V2.7h-7.3V1.6h14.8l12.1,43.9h0.1l12.1-43.9h14.5v1.1h-7.3v55.8h7.3v1.1h-21.1v-1.1h7.3V3.2h-0.1
		l-15.7,56.6l-15.6-56H322v54.8h7.3v1.1h-15.6V58.5z"/>
	<path d="M375.6,58.5h7.3V2.7h-7.3V1.6h21.1v1.1h-7.3v55.8h7.3v1.1h-21.1V58.5z"/>
	<path d="M404.6,58.5h7.3V2.7h-7.3V1.6h14.1l22.2,44.5h0.1V2.7h-7.3V1.6h15.6v1.1h-7.3v58.1h-1.3L413,6h-0.1v52.5h7.3v1.1h-15.6
		V58.5z"/>
	<path d="M451.2,58.5h5.8l17.7-58.5h1.6l17.9,58.5h5.8v1.1h-20.2v-1.1h7.3l-6.9-22.7h-15.2L458,58.5h7.3v1.1h-14.1V58.5z
		 M472.5,10.9l-7.2,23.8h14.4L472.5,10.9z"/>
</g>
</svg>
